{
  "asset": {
    "version": "2.0",
    "generator": "Scaniverse (https://scaniverse.com)"
  },
  "accessors": [
    {
      "bufferView": 0,
      "byteOffset": 0,
      "max": [
        30.500093460083008,
        5.010621070861816,
        27.477054595947266
      ],
      "min": [
        -30.962026596069336,
        -0.17699956893920898,
        -26.86148452758789
      ],
      "componentType": 5126,
      "count": 36078,
      "type": "VEC3"
    },
    {
      "bufferView": 1,
      "byteOffset": 0,
      "max": [
        0.9979492425918579,
        0.9977840781211853
      ],
      "min": [
        0.002069449285045266,
        0.002079486846923828
      ],
      "componentType": 5126,
      "count": 36078,
      "type": "VEC2"
    },
    {
      "bufferView": 2,
      "byteOffset": 0,
      "max": [
        36077
      ],
      "min": [
        0
      ],
      "componentType": 5125,
      "count": 157896,
      "type": "SCALAR"
    }
  ],
  "buffers": [
    {
      "name": "echizen-cityhall-road",
      "byteLength": 2872440,
      "uri": "data:application/octet-stream;base64,"
    }
  ],
  "bufferViews": [
    {
      "buffer": 0,
      "byteOffset": 0,
      "byteLength": 432936,
      "target": 34962,
      "byteStride": 12
    },
    {
      "buffer": 0,
      "byteOffset": 432936,
      "byteLength": 288624,
      "target": 34962,
      "byteStride": 8
    },
    {
      "buffer": 0,
      "byteOffset": 721560,
      "byteLength": 631584,
      "target": 34963
    },
    {
      "buffer": 0,
      "byteOffset": 1353144,
      "byteLength": 1519290
    }
  ],
  "images": [
    {
      "name": "texture.jpg",
      "bufferView": 3,
      "mimeType": "image/jpeg"
    }
  ],
  "materials": [
    {
      "name": "main",
      "pbrMetallicRoughness": {
        "baseColorTexture": {
          "index": 0,
          "texCoord": 0
        },
        "metallicFactor": 0,
        "baseColorFactor": [
          1,
          1,
          1,
          1
        ],
        "roughnessFactor": 1
      },
      "emissiveFactor": [
        0,
        0,
        0
      ],
      "alphaMode": "OPAQUE",
      "doubleSided": false
    }
  ],
  "meshes": [
    {
      "name": "mesh",
      "primitives": [
        {
          "mode": 4,
          "material": 0,
          "indices": 2,
          "attributes": {
            "POSITION": 0,
            "TEXCOORD_0": 1
          }
        }
      ]
    }
  ],
  "nodes": [
    {
      "name": "root",
      "children": [
        1
      ]
    },
    {
      "name": "mesh",
      "mesh": 0
    }
  ],
  "samplers": [
    {
      "wrapS": 10497,
      "wrapT": 10497
    }
  ],
  "scenes": [
    {
      "nodes": [
        0
      ]
    }
  ],
  "textures": [
    {
      "source": 0,
      "sampler": 0
    }
  ],
  "scene": 0
}
